{"glyphs":{"0":{"ha":625,"x_min":0,"x_max":486,"o":"m 406 951 q 464 871 443 915 q 486 769 486 825 l 486 246 q 442 107 486 171 q 406 65 428 86 q 395 57 400 61 q 386 50 390 53 q 243 3 322 3 q 81 65 150 3 q 22 146 44 97 q 0 246 0 192 l 0 769 q 43 908 0 846 q 60 931 51 919 q 81 951 69 942 q 90 959 86 956 q 100 967 94 963 q 243 1013 163 1013 q 329 997 288 1013 q 406 951 371 981 m 386 111 l 381 124 l 253 431 l 218 514 l 217 518 l 172 625 l 90 821 l 67 876 l 53 818 q 49 806 50 811 q 47 793 49 800 l 47 792 l 47 790 l 47 749 l 47 574 l 47 442 l 47 267 l 47 225 l 47 224 q 104 107 56 156 q 167 65 132 79 q 243 50 203 50 q 376 101 321 50 l 386 111 m 438 793 q 382 908 431 861 q 243 967 324 967 q 110 914 165 967 l 99 904 l 104 892 l 232 586 l 267 503 l 269 497 l 314 390 l 396 194 l 419 139 l 433 197 q 438 224 438 210 l 439 224 l 439 225 l 439 267 l 439 442 l 439 574 l 439 749 l 439 790 l 439 792 l 438 793 z "},"1":{"ha":336,"x_min":0,"x_max":197,"o":"m 65 931 q 144 1018 124 968 l 197 1018 l 197 -3 l 150 -3 l 150 868 l 150 881 l 150 914 l 119 899 q 63 873 93 883 q 0 854 33 863 l 0 901 q 65 931 38 914 z "},"2":{"ha":628,"x_min":0,"x_max":489,"o":"m 53 47 l 92 47 l 489 47 l 489 0 l 0 0 l 0 61 l 294 497 l 390 638 l 422 685 l 424 686 l 424 688 q 442 771 442 725 q 427 847 442 811 q 385 911 413 883 q 244 969 326 969 q 104 911 163 969 q 65 856 81 886 q 47 792 50 825 l 1 792 q 71 944 8 879 q 244 1015 144 1015 q 417 944 346 1015 q 489 771 489 872 q 451 640 489 701 l 450 640 q 447 635 449 638 q 443 629 446 632 l 74 79 l 53 47 z "},"3":{"ha":622,"x_min":0,"x_max":483,"o":"m 367 531 q 451 428 418 493 q 483 286 483 361 q 464 174 483 226 q 411 83 444 122 q 333 22 378 44 q 238 -1 289 -1 q 158 14 196 -1 q 90 58 121 29 q 35 124 58 86 q 1 208 13 163 l 51 208 q 97 126 67 161 q 238 60 156 60 q 379 126 321 60 q 422 200 407 158 q 436 286 436 242 q 422 372 436 331 q 379 446 407 414 q 288 506 340 490 l 285 507 l 282 507 l 228 507 l 228 579 l 282 579 l 285 579 l 288 579 q 335 599 313 586 q 378 632 358 613 q 436 772 436 690 q 378 913 436 854 q 314 955 350 940 q 238 969 278 969 q 161 955 197 969 q 97 913 125 940 q 49 831 63 876 l 0 831 q 76 957 19 907 q 151 1001 110 986 q 238 1017 193 1017 q 331 999 286 1017 q 411 944 376 981 q 465 865 446 910 q 483 772 483 821 q 451 651 483 707 q 368 564 419 597 l 343 549 l 367 531 l 367 531 z "},"4":{"ha":632,"x_min":0,"x_max":493,"o":"m 415 425 l 415 404 l 435 404 l 493 404 l 493 356 l 435 356 l 415 356 l 415 336 l 415 0 l 367 0 l 367 336 l 367 356 l 347 356 l 0 356 l 0 419 l 358 1019 l 415 1019 l 415 425 m 367 857 l 367 931 l 329 868 l 71 435 l 53 404 l 89 404 l 347 404 l 367 404 l 367 425 l 367 857 z "},"5":{"ha":628,"x_min":0,"x_max":489,"o":"m 421 1017 l 442 1017 l 442 1018 l 489 1018 l 489 969 l 421 969 l 68 969 l 47 969 l 47 949 l 47 671 l 47 603 l 47 557 l 82 588 q 244 650 151 650 q 340 631 293 650 q 407 588 375 617 q 467 507 444 556 q 489 406 489 461 l 489 246 q 467 144 489 190 q 407 64 444 96 q 244 1 338 1 q 82 64 151 1 q 25 139 46 96 q 3 211 7 175 l 46 211 l 50 211 q 51 206 50 208 q 51 200 51 203 q 104 106 64 146 q 168 63 132 78 q 244 49 204 49 q 321 63 285 49 q 385 106 357 78 q 438 200 425 146 q 440 212 439 207 q 440 222 440 217 l 442 224 l 442 225 l 442 267 l 442 385 l 442 426 l 442 428 l 440 429 q 440 440 440 435 q 438 451 439 444 q 385 546 425 506 q 268 601 336 594 l 267 603 l 265 603 l 224 603 l 222 603 l 221 601 q 104 546 153 594 q 51 451 64 506 q 51 447 51 449 q 50 443 50 446 l 47 443 l 0 443 l 0 582 l 0 671 l 0 1017 l 68 1017 l 421 1017 z "},"6":{"ha":626,"x_min":0,"x_max":488,"o":"m 456 429 q 488 288 488 363 q 468 176 488 228 q 416 85 449 124 q 339 24 383 46 q 244 1 294 1 q 150 24 194 1 q 72 85 106 46 q 19 176 39 124 q 0 288 0 228 l 0 771 q 71 944 0 871 q 244 1015 144 1015 q 330 1000 289 1015 q 404 956 371 985 q 481 829 464 906 l 433 829 q 383 911 418 876 q 244 969 325 969 q 104 911 163 969 q 46 771 46 853 l 46 751 l 47 751 l 47 750 l 47 575 l 47 515 l 47 465 l 82 501 q 115 531 99 518 q 244 574 172 574 q 310 563 278 574 q 372 531 343 553 q 456 429 426 492 m 385 129 q 427 202 413 161 q 442 288 442 243 q 427 373 442 332 q 385 446 413 414 q 321 497 357 479 q 244 514 285 514 q 103 446 160 514 q 47 314 56 390 l 47 313 l 47 308 l 46 308 l 46 288 q 60 202 46 243 q 103 129 75 161 q 244 63 161 63 q 385 129 326 63 z "},"7":{"ha":618,"x_min":0,"x_max":479,"o":"m 435 1018 l 479 1018 l 54 0 l 10 0 l 404 942 l 415 969 l 385 969 l 0 969 l 0 1018 l 422 1018 l 424 1018 l 435 1018 l 435 1018 z "},"8":{"ha":626,"x_min":0,"x_max":488,"o":"m 454 433 q 488 289 488 368 q 468 178 488 231 q 415 88 449 126 q 338 26 382 49 q 243 3 293 3 q 149 26 193 3 q 72 88 104 49 q 19 178 39 126 q 0 289 0 231 q 33 433 0 368 q 119 536 65 497 l 143 551 l 121 568 q 45 656 72 603 q 18 772 18 710 q 85 946 18 872 q 243 1017 151 1017 q 403 946 336 1017 q 469 772 469 872 q 442 656 469 710 q 367 568 415 603 l 344 551 l 367 536 q 454 433 422 497 m 113 633 q 243 575 167 575 q 375 633 321 575 q 429 772 429 692 q 375 911 429 853 q 243 969 321 969 q 113 911 167 969 q 58 772 58 853 q 113 633 58 692 m 385 131 q 427 203 413 163 q 442 289 442 244 q 427 374 442 333 q 385 447 413 415 q 320 497 357 479 q 243 515 283 515 q 167 497 203 515 q 103 447 131 479 q 60 374 75 415 q 46 289 46 333 q 60 203 46 244 q 103 131 75 163 q 243 64 161 64 q 385 131 326 64 z "},"9":{"ha":628,"x_min":0,"x_max":489,"o":"m 244 1014 q 339 991 294 1014 q 417 929 383 968 q 469 838 450 890 q 489 726 489 786 l 489 242 q 470 149 489 193 q 417 69 451 104 q 244 -1 346 -1 q 83 58 151 -1 q 7 185 26 108 l 56 185 q 104 103 68 139 q 244 44 163 44 q 385 103 326 44 q 427 166 413 131 q 442 242 442 201 l 442 263 l 440 263 l 440 264 l 440 439 l 440 499 l 440 549 l 406 513 q 372 483 390 496 q 244 440 314 440 q 115 483 175 440 q 32 585 64 519 q 0 726 0 651 q 19 838 0 786 q 72 929 39 890 q 150 991 106 968 q 244 1014 194 1014 m 442 726 q 427 813 442 771 q 385 886 413 854 q 244 953 326 953 q 103 886 161 953 q 60 813 75 854 q 46 726 46 771 q 103 568 46 633 q 167 518 131 536 q 244 500 204 500 q 321 518 285 500 q 385 568 357 536 q 440 700 433 624 l 440 701 l 440 703 l 440 707 l 442 707 l 442 726 z "},"\u0000":{"ha":0,"x_min":0,"x_max":0,"o":""},"\r":{"ha":694,"x_min":0,"x_max":0,"o":""}," ":{"ha":694,"x_min":0,"x_max":0,"o":""},"E":{"ha":629,"x_min":0,"x_max":490,"o":"m 47 68 l 47 47 l 68 47 l 490 47 l 490 0 l 68 0 l 0 0 l 0 68 l 0 1018 l 68 1018 l 489 1018 l 489 971 l 68 971 l 47 971 l 47 950 l 47 597 l 47 578 l 68 578 l 311 578 l 311 529 l 68 529 l 47 529 l 47 510 l 47 68 l 47 68 z "},"F":{"ha":628,"x_min":0,"x_max":489,"o":"m 47 950 l 47 597 l 47 578 l 68 578 l 311 578 l 311 529 l 68 529 l 47 529 l 47 508 l 47 -1 l 0 -1 l 0 1018 l 68 1018 l 489 1018 l 489 969 l 68 969 l 47 969 l 47 950 l 47 950 z "},"G":{"ha":629,"x_min":0,"x_max":490,"o":"m 442 796 q 385 914 433 865 q 274 969 338 961 l 272 969 l 271 969 l 219 969 l 218 969 l 217 969 q 104 914 151 961 q 49 796 54 864 l 47 796 l 47 794 l 47 753 l 47 575 l 47 443 l 47 265 l 47 224 l 47 222 l 49 222 q 104 104 54 153 q 222 49 153 54 l 222 47 l 224 47 l 265 47 l 267 47 l 268 49 q 385 104 336 56 q 442 222 433 153 l 442 224 l 442 265 l 442 421 l 442 442 l 422 442 l 274 442 l 265 442 l 265 489 l 271 489 l 422 489 l 490 489 l 490 421 l 490 244 l 490 17 l 490 0 l 442 0 l 442 17 l 442 47 l 442 93 l 408 63 q 340 19 378 33 q 244 0 293 0 q 82 63 151 0 q 63 82 71 71 q 0 244 0 151 l 0 774 q 63 936 0 867 q 82 956 71 947 q 149 999 113 983 q 229 1018 185 1014 l 244 1018 l 261 1018 q 308 1010 285 1015 q 351 994 331 1006 q 408 956 386 976 q 468 875 447 921 q 490 774 490 824 l 490 690 l 489 690 l 442 690 l 442 753 l 442 794 l 442 796 l 442 796 z "},"H":{"ha":629,"x_min":0,"x_max":490,"o":"m 68 576 l 422 576 l 442 576 l 442 597 l 442 1018 l 490 1018 l 490 25 l 490 0 l 442 0 l 442 25 l 442 508 l 442 529 l 422 529 l 68 529 l 47 529 l 47 508 l 47 0 l 0 0 l 0 508 l 0 597 l 0 1017 l 47 1017 l 47 597 l 47 576 l 68 576 l 68 576 z "},"I":{"ha":188,"x_min":0,"x_max":49,"o":"m 49 1018 l 49 0 l 0 0 l 0 1018 l 49 1018 l 49 1018 z "},"J":{"ha":626,"x_min":0,"x_max":488,"o":"m 265 49 q 382 106 333 57 q 439 222 431 154 l 439 224 l 439 225 l 439 267 l 439 443 l 439 575 l 439 751 l 439 793 l 439 969 l 439 1018 l 488 1018 l 488 772 l 488 246 q 482 193 488 218 q 465 144 476 168 q 440 101 454 121 q 406 63 425 81 q 338 19 375 36 q 242 0 290 0 q 140 22 192 0 q 97 48 117 33 q 60 82 78 63 q 35 115 46 97 q 17 151 24 132 q 0 211 4 181 l 47 211 q 103 106 57 150 q 219 49 151 57 l 221 49 l 264 49 l 265 49 l 265 49 z "},"K":{"ha":618,"x_min":0,"x_max":479,"o":"m 207 651 l 211 642 l 479 1 l 479 -1 l 436 -1 l 435 1 l 193 579 l 179 613 l 158 583 l 51 433 l 47 428 l 47 421 l 47 0 l 0 0 l 0 421 l 0 1018 l 47 1018 l 47 828 l 47 544 l 47 482 l 85 533 l 158 638 l 214 715 l 431 1018 l 468 1018 l 214 661 l 207 651 l 207 651 z "},"L":{"ha":631,"x_min":0,"x_max":492,"o":"m 47 68 l 47 47 l 68 47 l 492 47 l 492 0 l 68 0 l 0 0 l 0 68 l 0 1018 l 47 1018 l 47 68 l 47 68 z "},"M":{"ha":781,"x_min":0,"x_max":642,"o":"m 586 1018 l 642 1018 l 642 0 l 593 0 l 593 882 l 593 958 l 556 892 l 390 600 l 390 600 l 342 514 l 300 514 l 263 581 l 86 892 l 47 958 l 47 882 l 47 0 l 0 0 l 0 1018 l 56 1018 l 303 582 l 321 551 l 339 582 l 586 1018 l 586 1018 z "},"N":{"ha":628,"x_min":0,"x_max":489,"o":"m 442 1011 l 489 1011 l 489 0 l 435 0 l 86 829 l 47 921 l 47 821 l 47 796 l 47 658 l 47 0 l 0 0 l 0 1015 l 53 1015 l 364 275 l 442 86 l 442 190 l 442 375 l 442 1011 l 442 1011 z "},"O":{"ha":628,"x_min":0,"x_max":489,"o":"m 408 953 q 467 872 444 921 q 489 771 489 826 l 489 243 q 467 142 489 188 q 408 61 444 93 q 244 -1 338 -1 q 82 61 151 -1 q 22 142 44 93 q 0 243 0 188 l 0 771 q 22 872 0 826 q 82 953 44 921 q 244 1015 151 1015 q 408 953 338 1015 m 442 794 q 385 911 433 863 q 244 969 326 969 q 104 911 163 969 q 47 794 56 863 l 47 793 l 47 792 l 47 750 l 47 574 l 47 440 l 47 264 l 47 222 l 47 221 l 47 219 q 104 103 56 151 q 168 60 132 75 q 244 46 204 46 q 321 60 285 46 q 385 103 357 75 q 442 219 433 151 l 442 221 l 442 222 l 442 264 l 442 440 l 442 574 l 442 750 l 442 792 l 442 793 l 442 794 z "},"P":{"ha":628,"x_min":0,"x_max":489,"o":"m 451 903 q 489 771 489 844 q 447 633 489 696 q 340 546 407 574 q 244 526 297 526 l 68 526 l 47 526 l 47 506 l 47 -1 l 0 -1 l 0 506 l 0 594 l 0 771 l 0 1015 l 68 1015 l 244 1015 q 351 992 300 1015 q 407 953 382 976 q 451 903 432 931 m 385 631 q 443 771 443 689 q 385 911 443 853 q 268 968 336 960 l 267 968 l 265 968 l 224 968 l 68 968 l 47 968 l 47 947 l 47 792 l 47 750 l 47 594 l 47 574 l 68 574 l 224 574 l 265 574 l 267 574 l 268 574 q 385 631 336 582 z "},"Q":{"ha":628,"x_min":0,"x_max":489,"o":"m 489 244 q 468 143 489 190 q 442 99 457 119 q 408 63 428 79 q 393 50 397 54 l 371 33 l 393 18 q 489 -21 433 -14 l 489 -68 q 415 -49 450 -65 q 349 -7 379 -33 l 336 6 l 328 14 l 317 11 q 244 0 279 0 q 82 63 151 0 q 22 143 44 94 q 0 244 0 189 l 0 772 q 22 874 0 828 q 82 954 43 921 q 244 1017 151 1017 q 408 954 338 1017 q 468 874 446 921 q 489 772 489 825 l 489 244 m 442 794 l 442 796 q 385 913 433 864 q 244 971 326 971 q 104 913 163 971 q 49 796 56 864 l 47 794 l 47 793 l 47 751 l 47 575 l 47 442 l 47 265 l 47 224 l 47 222 l 49 222 q 104 104 56 153 q 168 62 132 76 q 244 47 204 47 q 321 62 285 47 q 385 104 357 76 q 442 222 433 153 l 442 224 l 442 265 l 442 442 l 442 575 l 442 751 l 442 793 l 442 794 z "},"R":{"ha":629,"x_min":0,"x_max":490,"o":"m 482 0 l 438 0 l 435 6 l 421 39 l 386 124 l 257 431 l 222 514 l 221 515 l 215 528 l 203 528 l 68 528 l 47 528 l 47 507 l 47 442 l 47 265 l 47 224 l 47 68 l 47 47 l 47 0 l 0 0 l 0 68 l 0 244 l 0 507 l 0 596 l 0 772 l 0 1017 l 11 1017 l 56 1017 l 68 1017 l 228 1017 l 229 1017 q 244 1018 235 1018 q 261 1017 256 1018 q 351 993 306 1015 q 451 904 414 963 q 490 772 490 843 q 479 701 490 736 q 449 636 468 667 q 340 547 406 574 q 314 538 328 542 q 286 531 300 533 l 261 526 l 271 503 l 272 500 l 272 499 l 318 389 l 400 196 l 446 88 l 458 57 l 472 21 l 479 6 l 482 0 m 265 575 l 267 575 l 268 576 q 385 632 336 583 q 443 772 443 690 q 385 913 443 854 q 274 969 339 958 l 272 969 l 271 969 l 219 969 l 106 969 l 68 969 l 47 969 l 47 949 l 47 828 l 47 793 l 47 751 l 47 596 l 47 575 l 68 575 l 165 575 l 224 575 l 254 575 l 265 575 z "},"S":{"ha":628,"x_min":0,"x_max":489,"o":"m 442 797 q 385 914 433 865 q 321 956 357 942 q 244 971 285 971 q 168 956 204 971 q 104 914 132 942 q 49 804 58 867 l 47 786 l 47 774 q 62 697 47 733 q 104 633 76 661 q 111 627 107 631 q 118 621 115 624 l 119 619 l 143 603 l 292 499 l 318 481 l 433 399 q 489 257 486 335 l 489 251 l 489 246 q 468 144 489 192 q 442 101 457 121 q 408 64 428 81 q 244 1 338 1 q 82 64 151 1 q 24 140 46 94 q 1 214 8 174 l 49 214 q 104 106 60 153 q 244 47 163 47 q 385 106 326 47 q 442 222 433 154 l 442 224 l 442 225 l 442 238 l 443 238 l 442 260 q 410 356 439 311 l 407 358 l 404 361 l 299 435 l 183 517 l 126 560 l 125 560 l 124 561 q 99 576 111 568 q 76 596 88 585 q 21 675 40 631 q 0 774 0 721 l 0 783 q 24 879 1 832 q 82 956 44 922 q 244 1018 151 1018 q 408 956 338 1018 q 442 919 428 939 q 468 875 457 899 q 489 782 486 832 l 442 782 l 442 794 l 442 796 l 442 797 z "},"T":{"ha":629,"x_min":0,"x_max":490,"o":"m 221 969 l 201 969 l 0 969 l 0 1018 l 490 1018 l 490 969 l 289 969 l 269 969 l 269 950 l 269 1 l 221 1 l 221 950 l 221 969 l 221 969 z "},"U":{"ha":629,"x_min":0,"x_max":490,"o":"m 244 46 q 385 104 326 46 q 442 221 433 153 l 442 222 l 442 224 l 442 265 l 442 442 l 442 575 l 442 751 l 442 793 l 442 969 l 442 1018 l 490 1018 l 490 772 l 490 244 q 485 192 490 217 q 468 143 479 167 q 442 99 457 119 q 408 61 428 79 q 244 -1 339 -1 q 82 61 151 -1 q 22 143 43 96 q 0 244 0 189 l 0 772 l 0 1017 l 47 1017 l 47 969 l 47 793 l 47 751 l 47 575 l 47 442 l 47 265 l 47 224 l 47 222 l 49 221 q 104 104 56 153 q 244 46 163 46 z "},"V":{"ha":622,"x_min":0,"x_max":483,"o":"m 436 1018 l 483 1018 l 269 0 l 214 0 l 0 1018 l 47 1018 l 206 257 l 242 83 l 275 243 l 436 1018 l 436 1018 z "},"W":{"ha":889,"x_min":0,"x_max":750,"o":"m 704 1018 l 750 1018 l 538 1 l 482 1 l 396 692 l 375 840 l 268 1 l 213 1 l 0 1018 l 47 1018 l 240 92 l 251 182 l 350 1018 l 401 1018 l 499 182 l 508 89 l 704 1018 l 704 1018 z "},"X":{"ha":608,"x_min":0,"x_max":469,"o":"m 257 510 l 261 501 l 469 0 l 425 0 l 254 411 l 235 456 l 217 411 l 44 0 l 0 0 l 210 501 l 213 508 l 210 517 l 0 1018 l 46 1018 l 217 608 l 235 563 l 254 607 l 425 1018 l 469 1018 l 261 517 l 257 510 l 257 510 z "},"Y":{"ha":608,"x_min":0,"x_max":469,"o":"m 425 1018 l 469 1018 l 261 517 l 258 513 l 258 508 l 258 297 l 258 0 l 211 0 l 211 297 l 211 508 l 211 513 l 210 517 l 0 1018 l 44 1018 l 217 607 l 235 563 l 254 607 l 425 1018 l 425 1018 z "},"Z":{"ha":629,"x_min":0,"x_max":490,"o":"m 454 969 l 422 969 l 0 969 l 0 1018 l 490 1018 l 490 954 l 50 78 l 35 47 l 68 47 l 490 47 l 490 0 l 0 0 l 0 64 l 440 940 l 454 969 l 454 969 z "},"a":{"ha":622,"x_min":0,"x_max":483,"o":"m 269 1017 l 483 0 l 436 0 l 347 425 l 344 442 l 328 442 l 156 442 l 139 442 l 136 425 l 47 0 l 0 0 l 213 1017 l 269 1017 m 310 489 l 335 489 l 329 513 l 261 838 l 261 838 l 242 929 l 240 929 l 215 810 l 154 513 l 149 489 l 174 489 l 310 489 z "},"b":{"ha":626,"x_min":0,"x_max":488,"o":"m 451 460 q 486 356 482 410 q 488 344 488 350 q 488 332 488 339 l 488 244 q 487 227 488 236 q 485 210 486 218 q 458 128 478 167 q 404 61 438 90 q 331 17 372 32 q 246 1 290 1 l 243 1 l 67 1 l 0 1 l 0 68 l 0 244 l 0 332 l 0 510 l 0 597 l 0 774 l 0 951 l 0 1018 l 67 1018 l 154 1018 l 158 1018 q 196 1014 176 1018 q 217 1009 207 1011 q 239 1003 228 1007 q 354 915 308 978 q 400 774 400 850 q 379 675 400 721 q 322 594 360 632 l 297 572 l 328 561 q 378 536 354 553 q 419 502 400 521 q 451 460 438 483 m 46 576 l 67 576 l 156 576 q 296 635 238 576 q 338 698 324 663 q 353 774 353 733 q 338 850 353 814 q 296 914 324 886 q 232 956 268 942 q 156 971 196 971 l 67 971 l 46 971 l 46 951 l 46 774 l 46 597 l 46 576 m 442 332 q 383 472 442 414 q 281 526 340 515 q 276 528 278 526 l 275 528 l 272 528 l 269 528 l 268 528 l 267 529 l 246 531 l 244 531 l 67 531 l 46 531 l 46 510 l 46 440 l 46 332 l 46 244 l 46 136 l 46 68 l 46 47 l 67 47 l 244 47 q 261 48 253 47 q 278 50 269 49 q 383 106 338 60 q 442 244 442 164 l 442 332 z "},"c":{"ha":629,"x_min":0,"x_max":490,"o":"m 442 796 q 424 860 439 831 q 385 914 408 890 q 244 971 328 971 q 168 956 204 971 q 104 914 132 942 q 49 796 54 864 q 47 785 47 790 q 47 774 47 779 l 47 751 l 47 575 l 47 443 l 47 267 l 47 244 q 47 233 47 239 q 49 221 47 228 q 104 104 56 153 q 244 46 163 46 q 385 104 326 46 q 424 158 408 128 q 442 221 439 188 l 442 222 l 442 224 l 442 265 l 442 328 l 489 328 l 490 328 l 490 244 q 468 143 490 189 q 408 63 447 97 q 244 0 339 0 q 82 63 151 0 q 22 143 44 94 q 0 244 0 189 l 0 774 q 22 875 0 829 q 82 956 44 924 q 244 1018 151 1018 q 408 956 339 1018 q 468 875 447 921 q 490 774 490 829 l 490 690 l 442 690 l 442 753 l 442 794 l 442 796 l 442 796 z "},"d":{"ha":629,"x_min":0,"x_max":490,"o":"m 408 956 q 468 875 447 921 q 490 774 490 824 l 490 244 q 468 143 490 194 q 408 63 447 97 q 340 19 378 36 q 244 0 293 0 l 68 0 l 0 0 l 0 68 l 0 244 l 0 774 l 0 1018 l 68 1018 l 228 1018 l 229 1018 l 244 1018 l 261 1018 q 351 993 308 1014 q 408 956 385 978 m 442 796 q 385 914 433 865 q 274 969 338 961 l 272 969 l 271 969 l 219 969 l 68 969 l 47 969 l 47 950 l 47 794 l 47 751 l 47 575 l 47 443 l 47 267 l 47 224 l 47 68 l 47 49 l 68 49 l 224 49 l 265 49 l 267 49 l 268 49 q 331 67 301 51 q 385 106 361 82 q 423 159 408 129 q 442 222 438 189 l 442 224 l 442 267 l 442 443 l 442 575 l 442 751 l 442 794 l 442 796 z "},"e":{"ha":629,"x_min":0,"x_max":490,"o":"m 47 68 l 47 47 l 68 47 l 490 47 l 490 0 l 68 0 l 0 0 l 0 68 l 0 1018 l 68 1018 l 489 1018 l 489 971 l 68 971 l 47 971 l 47 950 l 47 597 l 47 578 l 68 578 l 311 578 l 311 529 l 68 529 l 47 529 l 47 510 l 47 68 l 47 68 z "},"f":{"ha":628,"x_min":0,"x_max":489,"o":"m 47 950 l 47 597 l 47 578 l 68 578 l 311 578 l 311 529 l 68 529 l 47 529 l 47 508 l 47 -1 l 0 -1 l 0 1018 l 68 1018 l 489 1018 l 489 969 l 68 969 l 47 969 l 47 950 l 47 950 z "},"g":{"ha":629,"x_min":0,"x_max":490,"o":"m 442 796 q 385 914 433 865 q 274 969 338 961 l 272 969 l 271 969 l 219 969 l 218 969 l 217 969 q 104 914 151 961 q 49 796 54 864 l 47 796 l 47 794 l 47 753 l 47 575 l 47 443 l 47 265 l 47 224 l 47 222 l 49 222 q 104 104 54 153 q 222 49 153 54 l 222 47 l 224 47 l 265 47 l 267 47 l 268 49 q 385 104 336 56 q 442 222 433 153 l 442 224 l 442 265 l 442 421 l 442 442 l 422 442 l 274 442 l 265 442 l 265 489 l 271 489 l 422 489 l 490 489 l 490 421 l 490 244 l 490 17 l 490 0 l 442 0 l 442 17 l 442 47 l 442 93 l 408 63 q 340 19 378 33 q 244 0 293 0 q 82 63 151 0 q 63 82 71 71 q 0 244 0 151 l 0 774 q 63 936 0 867 q 82 956 71 947 q 149 999 113 983 q 229 1018 185 1014 l 244 1018 l 261 1018 q 308 1010 285 1015 q 351 994 331 1006 q 408 956 386 976 q 468 875 447 921 q 490 774 490 824 l 490 690 l 489 690 l 442 690 l 442 753 l 442 794 l 442 796 l 442 796 z "},"h":{"ha":629,"x_min":0,"x_max":490,"o":"m 68 576 l 422 576 l 442 576 l 442 597 l 442 1018 l 490 1018 l 490 25 l 490 0 l 442 0 l 442 25 l 442 508 l 442 529 l 422 529 l 68 529 l 47 529 l 47 508 l 47 0 l 0 0 l 0 508 l 0 597 l 0 1017 l 47 1017 l 47 597 l 47 576 l 68 576 l 68 576 z "},"i":{"ha":188,"x_min":0,"x_max":49,"o":"m 49 1018 l 49 0 l 0 0 l 0 1018 l 49 1018 l 49 1018 z "},"j":{"ha":626,"x_min":0,"x_max":488,"o":"m 265 49 q 382 106 333 57 q 439 222 431 154 l 439 224 l 439 225 l 439 267 l 439 443 l 439 575 l 439 751 l 439 793 l 439 969 l 439 1018 l 488 1018 l 488 772 l 488 246 q 482 193 488 218 q 465 144 476 168 q 440 101 454 121 q 406 63 425 81 q 338 19 375 36 q 242 0 290 0 q 140 22 192 0 q 97 48 117 33 q 60 82 78 63 q 35 115 46 97 q 17 151 24 132 q 0 211 4 181 l 47 211 q 103 106 57 150 q 219 49 151 57 l 221 49 l 264 49 l 265 49 l 265 49 z "},"k":{"ha":618,"x_min":0,"x_max":479,"o":"m 207 651 l 211 642 l 479 1 l 479 -1 l 436 -1 l 435 1 l 193 579 l 179 613 l 158 583 l 51 433 l 47 428 l 47 421 l 47 0 l 0 0 l 0 421 l 0 1018 l 47 1018 l 47 828 l 47 544 l 47 482 l 85 533 l 158 638 l 214 715 l 431 1018 l 468 1018 l 214 661 l 207 651 l 207 651 z "},"l":{"ha":631,"x_min":0,"x_max":492,"o":"m 47 68 l 47 47 l 68 47 l 492 47 l 492 0 l 68 0 l 0 0 l 0 68 l 0 1018 l 47 1018 l 47 68 l 47 68 z "},"m":{"ha":781,"x_min":0,"x_max":642,"o":"m 586 1018 l 642 1018 l 642 0 l 593 0 l 593 882 l 593 958 l 556 892 l 390 600 l 390 600 l 342 514 l 300 514 l 263 581 l 86 892 l 47 958 l 47 882 l 47 0 l 0 0 l 0 1018 l 56 1018 l 303 582 l 321 551 l 339 582 l 586 1018 l 586 1018 z "},"n":{"ha":628,"x_min":0,"x_max":489,"o":"m 442 1011 l 489 1011 l 489 0 l 435 0 l 86 829 l 47 921 l 47 821 l 47 796 l 47 658 l 47 0 l 0 0 l 0 1015 l 53 1015 l 364 275 l 442 86 l 442 190 l 442 375 l 442 1011 l 442 1011 z "},"o":{"ha":628,"x_min":0,"x_max":489,"o":"m 408 953 q 467 872 444 921 q 489 771 489 826 l 489 243 q 467 142 489 188 q 408 61 444 93 q 244 -1 338 -1 q 82 61 151 -1 q 22 142 44 93 q 0 243 0 188 l 0 771 q 22 872 0 826 q 82 953 44 921 q 244 1015 151 1015 q 408 953 338 1015 m 442 794 q 385 911 433 863 q 244 969 326 969 q 104 911 163 969 q 47 794 56 863 l 47 793 l 47 792 l 47 750 l 47 574 l 47 440 l 47 264 l 47 222 l 47 221 l 47 219 q 104 103 56 151 q 168 60 132 75 q 244 46 204 46 q 321 60 285 46 q 385 103 357 75 q 442 219 433 151 l 442 221 l 442 222 l 442 264 l 442 440 l 442 574 l 442 750 l 442 792 l 442 793 l 442 794 z "},"p":{"ha":628,"x_min":0,"x_max":489,"o":"m 451 903 q 489 771 489 844 q 447 633 489 696 q 340 546 407 574 q 244 526 297 526 l 68 526 l 47 526 l 47 506 l 47 -1 l 0 -1 l 0 506 l 0 594 l 0 771 l 0 1015 l 68 1015 l 244 1015 q 351 992 300 1015 q 407 953 382 976 q 451 903 432 931 m 385 631 q 443 771 443 689 q 385 911 443 853 q 268 968 336 960 l 267 968 l 265 968 l 224 968 l 68 968 l 47 968 l 47 947 l 47 792 l 47 750 l 47 594 l 47 574 l 68 574 l 224 574 l 265 574 l 267 574 l 268 574 q 385 631 336 582 z "},"q":{"ha":628,"x_min":0,"x_max":489,"o":"m 489 244 q 468 143 489 190 q 442 99 457 119 q 408 63 428 79 q 393 50 397 54 l 371 33 l 393 18 q 489 -21 433 -14 l 489 -68 q 415 -49 450 -65 q 349 -7 379 -33 l 336 6 l 328 14 l 317 11 q 244 0 279 0 q 82 63 151 0 q 22 143 44 94 q 0 244 0 189 l 0 772 q 22 874 0 828 q 82 954 43 921 q 244 1017 151 1017 q 408 954 338 1017 q 468 874 446 921 q 489 772 489 825 l 489 244 m 442 794 l 442 796 q 385 913 433 864 q 244 971 326 971 q 104 913 163 971 q 49 796 56 864 l 47 794 l 47 793 l 47 751 l 47 575 l 47 442 l 47 265 l 47 224 l 47 222 l 49 222 q 104 104 56 153 q 168 62 132 76 q 244 47 204 47 q 321 62 285 47 q 385 104 357 76 q 442 222 433 153 l 442 224 l 442 265 l 442 442 l 442 575 l 442 751 l 442 793 l 442 794 z "},"r":{"ha":629,"x_min":0,"x_max":490,"o":"m 482 0 l 438 0 l 435 6 l 421 39 l 386 124 l 257 431 l 222 514 l 221 515 l 215 528 l 203 528 l 68 528 l 47 528 l 47 507 l 47 442 l 47 265 l 47 224 l 47 68 l 47 47 l 47 0 l 0 0 l 0 68 l 0 244 l 0 507 l 0 596 l 0 772 l 0 1017 l 11 1017 l 56 1017 l 68 1017 l 228 1017 l 229 1017 q 244 1018 235 1018 q 261 1017 256 1018 q 351 993 306 1015 q 451 904 414 963 q 490 772 490 843 q 479 701 490 736 q 449 636 468 667 q 340 547 406 574 q 314 538 328 542 q 286 531 300 533 l 261 526 l 271 503 l 272 500 l 272 499 l 318 389 l 400 196 l 446 88 l 458 57 l 472 21 l 479 6 l 482 0 m 265 575 l 267 575 l 268 576 q 385 632 336 583 q 443 772 443 690 q 385 913 443 854 q 274 969 339 958 l 272 969 l 271 969 l 219 969 l 106 969 l 68 969 l 47 969 l 47 949 l 47 828 l 47 793 l 47 751 l 47 596 l 47 575 l 68 575 l 165 575 l 224 575 l 254 575 l 265 575 z "},"s":{"ha":628,"x_min":0,"x_max":489,"o":"m 442 797 q 385 914 433 865 q 321 956 357 942 q 244 971 285 971 q 168 956 204 971 q 104 914 132 942 q 49 804 58 867 l 47 786 l 47 774 q 62 697 47 733 q 104 633 76 661 q 111 627 107 631 q 118 621 115 624 l 119 619 l 143 603 l 292 499 l 318 481 l 433 399 q 489 257 486 335 l 489 251 l 489 246 q 468 144 489 192 q 442 101 457 121 q 408 64 428 81 q 244 1 338 1 q 82 64 151 1 q 24 140 46 94 q 1 214 8 174 l 49 214 q 104 106 60 153 q 244 47 163 47 q 385 106 326 47 q 442 222 433 154 l 442 224 l 442 225 l 442 238 l 443 238 l 442 260 q 410 356 439 311 l 407 358 l 404 361 l 299 435 l 183 517 l 126 560 l 125 560 l 124 561 q 99 576 111 568 q 76 596 88 585 q 21 675 40 631 q 0 774 0 721 l 0 783 q 24 879 1 832 q 82 956 44 922 q 244 1018 151 1018 q 408 956 338 1018 q 442 919 428 939 q 468 875 457 899 q 489 782 486 832 l 442 782 l 442 794 l 442 796 l 442 797 z "},"t":{"ha":629,"x_min":0,"x_max":490,"o":"m 221 969 l 201 969 l 0 969 l 0 1018 l 490 1018 l 490 969 l 289 969 l 269 969 l 269 950 l 269 1 l 221 1 l 221 950 l 221 969 l 221 969 z "},"u":{"ha":629,"x_min":0,"x_max":490,"o":"m 244 46 q 385 104 326 46 q 442 221 433 153 l 442 222 l 442 224 l 442 265 l 442 442 l 442 575 l 442 751 l 442 793 l 442 969 l 442 1018 l 490 1018 l 490 772 l 490 244 q 485 192 490 217 q 468 143 479 167 q 442 99 457 119 q 408 61 428 79 q 244 -1 339 -1 q 82 61 151 -1 q 22 143 43 96 q 0 244 0 189 l 0 772 l 0 1017 l 47 1017 l 47 969 l 47 793 l 47 751 l 47 575 l 47 442 l 47 265 l 47 224 l 47 222 l 49 221 q 104 104 56 153 q 244 46 163 46 z "},"v":{"ha":622,"x_min":0,"x_max":483,"o":"m 436 1018 l 483 1018 l 269 0 l 214 0 l 0 1018 l 47 1018 l 206 257 l 242 83 l 275 243 l 436 1018 l 436 1018 z "},"w":{"ha":889,"x_min":0,"x_max":750,"o":"m 704 1018 l 750 1018 l 538 1 l 482 1 l 396 692 l 375 840 l 268 1 l 213 1 l 0 1018 l 47 1018 l 240 92 l 251 182 l 350 1018 l 401 1018 l 499 182 l 508 89 l 704 1018 l 704 1018 z "},"x":{"ha":608,"x_min":0,"x_max":469,"o":"m 257 510 l 261 501 l 469 0 l 425 0 l 254 411 l 235 456 l 217 411 l 44 0 l 0 0 l 210 501 l 213 508 l 210 517 l 0 1018 l 46 1018 l 217 608 l 235 563 l 254 607 l 425 1018 l 469 1018 l 261 517 l 257 510 l 257 510 z "},"y":{"ha":608,"x_min":0,"x_max":469,"o":"m 425 1018 l 469 1018 l 261 517 l 258 513 l 258 508 l 258 297 l 258 0 l 211 0 l 211 297 l 211 508 l 211 513 l 210 517 l 0 1018 l 44 1018 l 217 607 l 235 563 l 254 607 l 425 1018 l 425 1018 z "},"z":{"ha":629,"x_min":0,"x_max":490,"o":"m 454 969 l 422 969 l 0 969 l 0 1018 l 490 1018 l 490 954 l 50 78 l 35 47 l 68 47 l 490 47 l 490 0 l 0 0 l 0 64 l 440 940 l 454 969 l 454 969 z "},".":{"ha":211,"x_min":0,"x_max":72,"o":"m 72 76 l 72 4 l 0 4 l 0 76 l 72 76 l 72 76 z "},",":{"ha":211,"x_min":0,"x_max":72,"o":"m 24 -1 l 0 -1 l 0 71 l 72 71 l 72 -21 q 58 -59 72 -43 q 24 -82 44 -75 l 24 -51 l 24 -40 l 24 -1 z "},"!":{"ha":211,"x_min":0,"x_max":72,"o":"m 72 1018 l 72 221 l 0 221 l 0 1018 l 72 1018 m 72 65 l 72 0 l 0 0 l 0 65 l 72 65 z "},"?":{"ha":644,"x_min":0,"x_max":506,"o":"m 322 3 l 251 3 l 251 67 l 322 67 l 322 3 m 432 942 q 463 905 450 925 q 486 863 476 885 q 501 814 497 839 q 506 764 506 789 q 489 672 506 715 q 414 568 465 611 q 388 549 403 558 l 383 547 l 381 544 q 378 541 379 542 q 375 538 376 540 q 322 410 326 489 l 322 408 l 322 407 l 322 389 l 322 388 l 322 275 l 322 238 l 251 238 l 251 408 q 268 499 251 454 q 344 604 293 561 q 371 622 356 614 l 374 625 l 376 628 q 380 631 379 629 q 383 633 381 632 q 438 764 438 688 q 383 893 438 839 q 253 947 329 947 q 122 893 176 947 q 69 764 69 840 q 88 683 69 719 l 36 632 q 0 764 0 693 q 19 863 0 813 q 43 905 29 885 q 74 942 57 925 q 154 997 107 975 q 253 1017 204 1017 q 351 997 304 1017 q 432 942 397 976 z "},"#":{"ha":510,"x_min":0,"x_max":371,"o":"m 339 632 l 318 579 l 371 579 l 371 551 l 335 551 l 308 551 l 299 526 l 279 475 l 258 422 l 315 422 l 371 422 l 371 396 l 275 396 l 249 396 l 239 371 l 206 282 l 181 282 l 204 343 l 224 396 l 168 396 l 103 396 l 76 396 l 67 371 l 33 282 l 8 282 l 32 343 l 53 396 l 0 396 l 0 422 l 36 422 l 63 422 l 72 447 l 92 500 l 111 551 l 56 551 l 0 551 l 0 579 l 94 579 l 122 579 l 132 604 l 165 693 l 189 693 l 167 632 l 146 579 l 203 579 l 267 579 l 294 579 l 304 604 l 338 693 l 361 693 l 339 632 m 264 500 l 283 551 l 228 551 l 163 551 l 136 551 l 126 526 l 107 475 l 86 422 l 143 422 l 208 422 l 235 422 l 244 447 l 264 500 z "},"$":{"ha":629,"x_min":0,"x_max":490,"o":"m 408 964 q 468 882 447 929 q 490 790 488 842 l 446 790 l 446 800 l 446 803 l 444 806 q 426 869 442 839 q 388 924 411 899 q 306 972 351 958 l 251 990 l 251 933 l 251 553 l 251 531 l 269 518 l 292 503 l 318 483 l 435 403 q 472 342 458 375 q 489 276 485 310 l 490 263 l 490 261 l 490 249 q 468 147 490 193 q 408 65 447 100 q 286 7 354 17 l 251 0 l 251 -35 l 251 -44 l 239 -44 l 239 -35 l 239 0 l 204 7 q 82 65 136 17 q 24 142 44 99 q 3 215 7 176 l 47 215 q 103 106 58 150 q 141 76 121 89 q 185 57 161 64 l 239 39 l 239 96 l 239 463 l 239 483 l 222 496 l 183 524 l 128 565 l 125 567 l 124 568 q 76 603 96 582 q 21 682 40 638 q 0 781 0 729 l 0 790 q 24 888 1 840 q 82 964 44 931 q 204 1022 136 1013 l 239 1028 l 239 1064 l 239 1074 l 251 1074 l 251 1064 l 251 1028 l 286 1022 q 408 964 354 1013 m 239 990 l 185 972 q 103 924 139 958 q 47 814 58 879 l 42 814 l 44 769 q 103 639 49 693 l 115 626 l 117 625 l 118 624 l 142 608 l 174 586 l 239 539 l 239 619 l 239 933 l 239 990 m 251 475 l 251 394 l 251 96 l 251 39 l 306 57 q 349 76 329 64 q 388 106 369 89 q 444 224 438 156 l 446 226 l 446 229 l 446 261 l 446 268 l 446 271 l 444 274 q 415 356 440 318 l 411 363 l 404 368 l 317 429 l 251 475 z "},"%":{"ha":778,"x_min":0,"x_max":639,"o":"m 224 793 q 131 756 186 756 q 81 765 104 756 q 39 793 57 774 q 0 886 0 832 q 39 978 0 942 q 131 1017 75 1017 q 224 978 185 1017 q 261 886 261 940 q 224 793 261 833 m 29 886 q 60 814 29 844 q 131 785 89 785 q 203 814 171 785 q 232 886 232 846 q 203 957 232 925 q 131 986 174 986 q 92 979 111 986 q 60 957 74 972 q 29 886 29 926 m 600 226 q 639 135 639 188 q 600 42 639 81 q 507 3 561 3 q 415 42 454 3 q 376 135 376 81 q 415 226 376 188 q 507 265 454 265 q 600 226 561 265 m 579 63 q 608 135 608 92 q 579 206 608 176 q 507 235 550 235 q 436 206 465 235 q 407 135 407 176 q 436 63 407 92 q 507 33 465 33 q 579 63 550 33 m 88 3 l 529 1017 l 551 1017 l 108 3 l 88 3 z "},"^":{"ha":360,"x_min":0,"x_max":221,"o":"m 86 1018 l 135 1018 l 221 875 l 189 875 l 143 958 l 110 1018 l 75 960 l 24 875 l 0 875 l 86 1018 l 86 1018 z "},"*":{"ha":342,"x_min":0,"x_max":203,"o":"m 149 993 l 117 935 l 183 935 l 203 935 l 203 918 l 183 918 l 117 918 l 149 860 l 160 842 l 144 833 l 136 849 l 101 908 l 68 849 l 60 833 l 44 842 l 54 860 l 88 918 l 21 918 l 0 918 l 0 935 l 21 935 l 88 935 l 54 993 l 44 1011 l 60 1019 l 68 1004 l 101 943 l 136 1004 l 144 1019 l 160 1011 l 149 993 l 149 993 z "},"(":{"ha":293,"x_min":0,"x_max":154,"o":"m 25 1018 q 93 1135 50 1086 q 123 1163 108 1150 q 154 1188 138 1176 l 154 1100 q 117 1061 132 1082 q 56 901 64 996 l 54 900 l 54 897 l 54 839 l 54 588 l 54 399 l 54 147 l 54 89 l 54 86 l 56 85 q 117 -76 64 -10 q 154 -114 133 -97 l 154 -201 q 93 -149 121 -181 q 25 -32 50 -100 q 0 117 0 39 l 0 868 q 25 1018 0 947 z "},")":{"ha":293,"x_min":0,"x_max":154,"o":"m 61 1135 q 100 1081 83 1111 q 129 1018 117 1051 q 154 868 154 947 l 154 117 q 129 -32 154 39 q 100 -95 117 -65 q 61 -149 83 -125 q 0 -201 33 -181 l 0 -114 q 38 -75 22 -96 q 100 85 92 -8 l 100 86 l 100 89 l 100 147 l 100 399 l 100 588 l 100 839 l 100 897 l 100 900 l 100 901 q 38 1061 92 994 q 0 1100 22 1082 l 0 1188 q 61 1135 33 1167 z "},"_":{"ha":807,"x_min":0,"x_max":668,"o":"m 668 64 l 668 0 l 0 0 l 0 64 l 668 64 l 668 64 z "},"-":{"ha":486,"x_min":0,"x_max":347,"o":"m 347 554 l 347 500 l 0 500 l 0 554 l 347 554 l 347 554 z "},"=":{"ha":504,"x_min":0,"x_max":365,"o":"m 365 732 l 365 674 l 0 674 l 0 732 l 365 732 m 365 529 l 365 469 l 0 469 l 0 529 l 365 529 z "},"+":{"ha":518,"x_min":0,"x_max":379,"o":"m 221 614 l 221 575 l 260 575 l 379 575 l 379 511 l 260 511 l 221 511 l 221 472 l 221 354 l 158 354 l 158 472 l 158 511 l 118 511 l 0 511 l 0 575 l 118 575 l 158 575 l 158 614 l 158 732 l 221 732 l 221 614 l 221 614 z "},"{":{"ha":494,"x_min":0,"x_max":356,"o":"m 192 1103 q 235 1142 213 1125 q 286 1169 258 1158 q 356 1188 317 1183 l 356 1111 q 309 1100 332 1108 q 265 1078 286 1092 q 241 1058 253 1068 q 218 1035 229 1047 q 171 950 188 997 q 154 850 154 903 l 154 747 l 154 746 l 154 738 l 154 729 q 149 672 154 700 q 136 615 144 643 q 89 521 121 565 l 72 497 l 89 474 q 138 374 121 426 q 149 319 144 347 q 154 264 154 292 l 154 256 l 154 247 l 154 246 l 154 136 q 171 36 154 83 q 218 -49 188 -11 q 241 -72 229 -61 q 265 -92 253 -82 q 356 -125 307 -121 l 356 -201 q 286 -183 317 -197 q 235 -156 258 -172 q 192 -117 213 -139 q 115 18 142 -62 q 99 136 99 74 l 99 249 l 99 263 l 99 264 q 95 300 97 282 q 88 335 93 318 q 38 436 74 392 l 36 438 q 35 440 36 438 q 0 474 17 461 l 0 519 q 18 535 10 526 q 35 554 26 544 l 36 556 l 38 557 q 78 628 64 590 q 99 731 96 675 l 99 744 l 99 850 q 103 913 99 882 q 118 974 107 944 q 192 1103 142 1049 z "},"}":{"ha":494,"x_min":0,"x_max":356,"o":"m 322 554 q 356 519 336 536 l 356 474 q 338 458 347 467 q 322 440 329 450 q 319 438 319 438 l 319 436 q 288 389 301 414 q 268 335 275 364 q 261 300 264 318 q 258 264 258 282 l 258 263 l 258 249 l 258 136 q 253 75 258 104 q 240 18 249 46 q 210 -55 229 -21 q 165 -117 190 -89 q 121 -156 144 -139 q 71 -183 97 -172 q 0 -201 38 -197 l 0 -126 q 47 -115 24 -124 q 90 -92 71 -107 q 138 -49 117 -74 q 185 36 169 -11 q 201 136 201 83 l 201 246 l 201 247 l 201 256 l 201 264 q 219 374 204 324 q 267 474 236 429 l 283 497 l 267 521 q 221 615 238 563 q 207 672 211 643 q 201 729 203 700 l 201 738 l 201 746 l 201 747 l 201 850 q 185 950 201 903 q 138 1035 169 997 q 90 1078 117 1060 q 47 1100 71 1092 q 0 1111 24 1108 l 0 1188 q 71 1169 38 1183 q 121 1142 97 1158 q 165 1103 144 1125 q 239 974 213 1049 q 258 850 258 913 l 258 744 l 258 731 q 278 628 258 678 q 319 557 292 588 l 319 556 q 321 555 321 556 q 322 554 321 554 z "},"[":{"ha":304,"x_min":0,"x_max":165,"o":"m 165 -201 l 78 -201 l 0 -201 l 0 -103 l 0 1188 l 78 1188 l 165 1188 l 165 1110 l 99 1110 l 57 1110 l 57 1069 l 57 -83 l 57 -124 l 99 -124 l 165 -124 l 165 -201 l 165 -201 z "},"]":{"ha":304,"x_min":0,"x_max":165,"o":"m 108 1110 l 67 1110 l 0 1110 l 0 1188 l 88 1188 l 165 1188 l 165 -103 l 165 -201 l 88 -201 l 0 -201 l 0 -124 l 67 -124 l 108 -124 l 108 -83 l 108 1069 l 108 1110 l 108 1110 z "},":":{"ha":199,"x_min":0,"x_max":60,"o":"m 60 342 l 60 282 l 0 282 l 0 342 l 60 342 m 60 629 l 60 568 l 0 568 l 0 629 l 60 629 z "},";":{"ha":199,"x_min":0,"x_max":60,"o":"m 60 565 l 0 565 l 0 626 l 60 626 l 60 565 m 22 278 l 0 278 l 0 339 l 60 339 l 60 257 q 49 225 60 239 q 22 204 39 211 l 22 229 l 22 239 l 22 278 z "},"\"":{"ha":403,"x_min":0,"x_max":264,"o":"m 22 961 l 0 961 l 0 1021 l 60 1021 l 60 940 q 49 908 60 922 q 22 888 39 894 l 22 913 l 22 922 l 22 961 m 226 961 l 204 961 l 204 1021 l 264 1021 l 264 940 q 253 908 264 922 q 226 888 243 894 l 226 913 l 226 922 l 226 961 z "},"'":{"ha":199,"x_min":0,"x_max":60,"o":"m 21 958 l 0 958 l 0 1018 l 60 1018 l 60 938 q 49 906 60 919 q 21 885 38 892 l 21 910 l 21 919 l 21 958 z "},"|":{"ha":197,"x_min":0,"x_max":58,"o":"m 58 1074 l 58 -104 l 0 -104 l 0 1074 l 58 1074 l 58 1074 z "},"/":{"ha":529,"x_min":0,"x_max":390,"o":"m 65 0 l 0 0 l 325 1018 l 390 1018 l 65 0 l 65 0 z "},"\\":{"ha":529,"x_min":0,"x_max":390,"o":"m 0 1019 l 65 1019 l 390 0 l 325 0 l 0 1019 l 0 1019 z "},"⁄":{"ha":529,"x_min":0,"x_max":390,"o":"m 65 0 l 0 0 l 325 1018 l 390 1018 l 65 0 l 65 0 z "},"~":{"ha":447,"x_min":0,"x_max":308,"o":"m 169 665 q 235 656 199 656 q 308 668 272 656 l 308 615 q 299 613 303 613 q 235 604 267 604 q 192 608 214 604 q 151 618 171 611 q 142 621 147 618 l 140 621 l 140 622 q 108 629 125 626 q 75 632 92 632 q 0 618 39 632 l 0 672 q 10 675 4 672 q 42 680 26 678 q 75 682 58 682 q 158 669 117 682 q 168 665 164 667 l 169 665 l 169 665 z "},"`":{"ha":240,"x_min":0,"x_max":101,"o":"m 0 1018 l 49 1018 l 101 811 l 81 811 l 0 1018 l 0 1018 z "},"<":{"ha":476,"x_min":0,"x_max":338,"o":"m 338 344 l 338 304 l 0 467 l 0 529 l 338 674 l 338 632 l 101 531 l 22 497 l 99 460 l 338 344 l 338 344 z "},">":{"ha":474,"x_min":0,"x_max":335,"o":"m 313 496 l 235 529 l 0 631 l 0 672 l 335 528 l 335 467 l 0 304 l 0 344 l 236 458 l 313 496 l 313 496 z "},"B":{"ha":626,"x_min":0,"x_max":488,"o":"m 451 460 q 486 356 482 410 q 488 344 488 350 q 488 332 488 339 l 488 244 q 487 227 488 236 q 485 210 486 218 q 458 128 478 167 q 404 61 438 90 q 331 17 372 32 q 246 1 290 1 l 243 1 l 67 1 l 0 1 l 0 68 l 0 244 l 0 332 l 0 510 l 0 597 l 0 774 l 0 951 l 0 1018 l 67 1018 l 154 1018 l 158 1018 q 196 1014 176 1018 q 217 1009 207 1011 q 239 1003 228 1007 q 354 915 308 978 q 400 774 400 850 q 379 675 400 721 q 322 594 360 632 l 297 572 l 328 561 q 378 536 354 553 q 419 502 400 521 q 451 460 438 483 m 46 576 l 67 576 l 156 576 q 296 635 238 576 q 338 698 324 663 q 353 774 353 733 q 338 850 353 814 q 296 914 324 886 q 232 956 268 942 q 156 971 196 971 l 67 971 l 46 971 l 46 951 l 46 774 l 46 597 l 46 576 m 442 332 q 383 472 442 414 q 281 526 340 515 q 276 528 278 526 l 275 528 l 272 528 l 269 528 l 268 528 l 267 529 l 246 531 l 244 531 l 67 531 l 46 531 l 46 510 l 46 440 l 46 332 l 46 244 l 46 136 l 46 68 l 46 47 l 67 47 l 244 47 q 261 48 253 47 q 278 50 269 49 q 383 106 338 60 q 442 244 442 164 l 442 332 z "},"C":{"ha":629,"x_min":0,"x_max":490,"o":"m 442 796 q 424 860 439 831 q 385 914 408 890 q 244 971 328 971 q 168 956 204 971 q 104 914 132 942 q 49 796 54 864 q 47 785 47 790 q 47 774 47 779 l 47 751 l 47 575 l 47 443 l 47 267 l 47 244 q 47 233 47 239 q 49 221 47 228 q 104 104 56 153 q 244 46 163 46 q 385 104 326 46 q 424 158 408 128 q 442 221 439 188 l 442 222 l 442 224 l 442 265 l 442 328 l 489 328 l 490 328 l 490 244 q 468 143 490 189 q 408 63 447 97 q 244 0 339 0 q 82 63 151 0 q 22 143 44 94 q 0 244 0 189 l 0 774 q 22 875 0 829 q 82 956 44 924 q 244 1018 151 1018 q 408 956 339 1018 q 468 875 447 921 q 490 774 490 829 l 490 690 l 442 690 l 442 753 l 442 794 l 442 796 l 442 796 z "},"A":{"ha":622,"x_min":0,"x_max":483,"o":"m 269 1017 l 483 0 l 436 0 l 347 425 l 344 442 l 328 442 l 156 442 l 139 442 l 136 425 l 47 0 l 0 0 l 213 1017 l 269 1017 m 310 489 l 335 489 l 329 513 l 261 838 l 261 838 l 242 929 l 240 929 l 215 810 l 154 513 l 149 489 l 174 489 l 310 489 z "},"D":{"ha":629,"x_min":0,"x_max":490,"o":"m 408 956 q 468 875 447 921 q 490 774 490 824 l 490 244 q 468 143 490 194 q 408 63 447 97 q 340 19 378 36 q 244 0 293 0 l 68 0 l 0 0 l 0 68 l 0 244 l 0 774 l 0 1018 l 68 1018 l 228 1018 l 229 1018 l 244 1018 l 261 1018 q 351 993 308 1014 q 408 956 385 978 m 442 796 q 385 914 433 865 q 274 969 338 961 l 272 969 l 271 969 l 219 969 l 68 969 l 47 969 l 47 950 l 47 794 l 47 751 l 47 575 l 47 443 l 47 267 l 47 224 l 47 68 l 47 49 l 68 49 l 224 49 l 265 49 l 267 49 l 268 49 q 331 67 301 51 q 385 106 361 82 q 423 159 408 129 q 442 222 438 189 l 442 224 l 442 267 l 442 443 l 442 575 l 442 751 l 442 794 l 442 796 z "}}}
